<?xml version="1.0" encoding="UTF-8"?>
<svg id="Layer_1" xmlns="http://www.w3.org/2000/svg" version="1.1" viewBox="0 0 30 30">
  <!-- Generator: Adobe Illustrator 30.4.0, SVG Export Plug-In . SVG Version: 2.1.4 Build 226)  -->
  <defs>
    <style>
      .st0 {
        fill: #fff;
      }
    </style>
  </defs>
  <path class="st0" d="M24,4H6c-1.1,0-2,.9-2,2v18c0,1.1.9,2,2,2h18c1.1,0,2-.9,2-2V6c0-1.1-.9-2-2-2ZM8.52,9.89h12.97c.18,0,.35.04.49.11l-6.45,6.51c-.3.3-.76.3-1.06,0l-6.44-6.51c.15-.07.32-.11.49-.11ZM7.37,19.43v-8.39c0-.17.04-.34.11-.49l4.84,4.89-4.83,4.49c-.07-.15-.11-.32-.11-.5ZM21.48,20.57h-12.97c-.17,0-.34-.04-.48-.11l4.83-4.48,1.06,1.07c.59.6,1.56.6,2.15,0l1.07-1.08,4.83,4.49c-.15.07-.31.11-.48.11ZM22.63,19.43c0,.18-.04.35-.11.5l-4.84-4.49,4.84-4.89c.07.15.11.32.11.49v8.39Z"/>
</svg>