<?xml version="1.0" encoding="UTF-8"?>
<svg id="Layer_1" xmlns="http://www.w3.org/2000/svg" version="1.1" viewBox="0 0 30 30">
  <!-- Generator: Adobe Illustrator 30.4.0, SVG Export Plug-In . SVG Version: 2.1.4 Build 226)  -->
  <defs>
    <style>
      .st0 {
        fill: #fff;
      }
    </style>
  </defs>
  <path class="st0" d="M24,4H6c-1.11,0-2,.89-2,2v18c0,1.1.89,2,2,2h18c1.1,0,2-.9,2-2V6c0-1.11-.9-2-2-2ZM10.95,22h-2.95v-9.49h2.95v9.49ZM9.45,11.15c-.95,0-1.72-.77-1.72-1.72s.77-1.72,1.72-1.72,1.72.77,1.72,1.72-.77,1.72-1.72,1.72ZM22,22h-2.95v-4.62c0-1.1-.02-2.52-1.53-2.52s-1.77,1.2-1.77,2.44v4.7h-2.95v-9.49h2.83v1.3h.04c.39-.75,1.36-1.53,2.79-1.53,2.99,0,3.54,1.97,3.54,4.52,0,0,0,5.21,0,5.21Z"/>
</svg>