<svg width="221" height="180" viewBox="0 0 221 180" fill="none" xmlns="http://www.w3.org/2000/svg">
<path d="M139.922 180V65.25H220.37V90.3516H170.226V110.074H216.227V135.176H170.226V154.898H220.152V180H139.922Z" fill="white"/>
<path d="M0 65.25H37.7168L63.6607 130.245H64.9688L90.9128 65.25H128.63V180H98.9794V113.66H98.1073L73.2534 179.104H55.3761L30.5223 113.212H29.6502V180H0V65.25Z" fill="white"/>
<path d="M181.43 10.5543V0.620789H220.898V10.5543H207.239V46.0311H195.088V10.5543H181.43Z" fill="white"/>
<path d="M165.733 0.620789H178.061V29.7117C178.061 33.1707 177.234 36.1641 175.578 38.6918C173.937 41.2047 171.646 43.1486 168.704 44.5233C165.763 45.8832 162.348 46.5632 158.461 46.5632C154.543 46.5632 151.114 45.8832 148.172 44.5233C145.231 43.1486 142.939 41.2047 141.299 38.6918C139.673 36.1641 138.86 33.1707 138.86 29.7117V0.620789H151.188V28.6474C151.188 30.0517 151.498 31.3082 152.119 32.4168C152.74 33.5107 153.597 34.3681 154.691 34.9889C155.8 35.6098 157.056 35.9202 158.461 35.9202C159.88 35.9202 161.136 35.6098 162.23 34.9889C163.324 34.3681 164.181 33.5107 164.802 32.4168C165.423 31.3082 165.733 30.0517 165.733 28.6474V0.620789Z" fill="white"/>
<path d="M134.404 23.326C134.404 28.3814 133.421 32.646 131.455 36.1198C129.489 39.5788 126.836 42.2026 123.495 43.9912C120.155 45.765 116.43 46.652 112.32 46.652C108.181 46.652 104.441 45.7576 101.101 43.969C97.7747 42.1656 95.1287 39.5344 93.1627 36.0754C91.2115 32.6017 90.2358 28.3519 90.2358 23.326C90.2358 18.2705 91.2115 14.0133 93.1627 10.5543C95.1287 7.08057 97.7747 4.45677 101.101 2.68293C104.441 0.89431 108.181 0 112.32 0C116.43 0 120.155 0.89431 123.495 2.68293C126.836 4.45677 129.489 7.08057 131.455 10.5543C133.421 14.0133 134.404 18.2705 134.404 23.326ZM121.721 23.326C121.721 20.6061 121.359 18.3149 120.635 16.4524C119.925 14.575 118.869 13.156 117.464 12.1951C116.075 11.2195 114.36 10.7317 112.32 10.7317C110.28 10.7317 108.558 11.2195 107.154 12.1951C105.764 13.156 104.707 14.575 103.983 16.4524C103.274 18.3149 102.919 20.6061 102.919 23.326C102.919 26.0459 103.274 28.3445 103.983 30.2218C104.707 32.0843 105.764 33.5034 107.154 34.479C108.558 35.4398 110.28 35.9202 112.32 35.9202C114.36 35.9202 116.075 35.4398 117.464 34.479C118.869 33.5034 119.925 32.0843 120.635 30.2218C121.359 28.3445 121.721 26.0459 121.721 23.326Z" fill="white"/>
<path d="M49.9546 46.0311V0.620789H69.6442C73.1032 0.620789 76.0078 1.08642 78.3582 2.01769C80.7233 2.94895 82.5045 4.26455 83.7019 5.96448C84.914 7.6644 85.5201 9.66736 85.5201 11.9734C85.5201 13.6437 85.1505 15.1663 84.4114 16.541C83.6871 17.9157 82.6671 19.0687 81.3515 20C80.0359 20.9165 78.4986 21.5521 76.7396 21.9068V22.3503C78.6908 22.4242 80.4646 22.9194 82.0611 23.8359C83.6575 24.7376 84.9288 25.9867 85.8748 27.5831C86.8209 29.1648 87.2939 31.0273 87.2939 33.1707C87.2939 35.6541 86.6435 37.864 85.3427 39.8004C84.0566 41.7369 82.2237 43.2594 79.8438 44.3681C77.4639 45.4767 74.6257 46.0311 71.3293 46.0311H49.9546ZM62.2828 36.1862H68.0477C70.1172 36.1862 71.6693 35.8019 72.7041 35.0332C73.7388 34.2498 74.2562 33.0968 74.2562 31.5743C74.2562 30.51 74.0123 29.6083 73.5245 28.8692C73.0367 28.1301 72.3419 27.5683 71.4402 27.184C70.5533 26.7997 69.4816 26.6075 68.2251 26.6075H62.2828V36.1862ZM62.2828 18.98H67.3382C68.4173 18.98 69.3707 18.81 70.1985 18.47C71.0263 18.1301 71.6693 17.6422 72.1276 17.0066C72.6006 16.3562 72.8371 15.5654 72.8371 14.6341C72.8371 13.2298 72.3345 12.1581 71.3293 11.419C70.3242 10.6651 69.0529 10.2882 67.5156 10.2882H62.2828V18.98Z" fill="white"/>
<path d="M13.3038 46.0311H0L14.9889 0.620789H31.8404L46.8293 46.0311H33.5255L23.5921 13.1264H23.2373L13.3038 46.0311ZM10.8204 28.1153H35.8315V37.3392H10.8204V28.1153Z" fill="white"/>
</svg>
