<svg width="491" height="204" viewBox="0 0 491 204" fill="none" xmlns="http://www.w3.org/2000/svg">
<path d="M450.33 130.476C450.06 127.103 448.795 124.471 446.534 122.582C444.308 120.692 440.917 119.748 436.362 119.748C433.461 119.748 431.082 120.102 429.227 120.811C427.405 121.485 426.056 122.413 425.178 123.594C424.301 124.775 423.846 126.124 423.812 127.642C423.745 128.891 423.964 130.021 424.47 131.033C425.01 132.011 425.853 132.905 427 133.715C428.147 134.491 429.615 135.2 431.403 135.841C433.191 136.482 435.316 137.055 437.779 137.561L446.281 139.383C452.016 140.598 456.925 142.2 461.008 144.191C465.09 146.181 468.43 148.526 471.028 151.225C473.625 153.89 475.532 156.893 476.746 160.233C477.994 163.573 478.635 167.216 478.669 171.164C478.635 177.979 476.932 183.748 473.558 188.471C470.184 193.194 465.36 196.787 459.084 199.25C452.843 201.713 445.336 202.944 436.565 202.944C427.557 202.944 419.696 201.612 412.982 198.946C406.302 196.281 401.107 192.182 397.396 186.649C393.718 181.082 391.863 173.964 391.829 165.293H418.549C418.718 168.465 419.51 171.13 420.927 173.289C422.344 175.448 424.335 177.085 426.899 178.198C429.497 179.311 432.584 179.868 436.16 179.868C439.163 179.868 441.676 179.497 443.7 178.755C445.724 178.012 447.26 176.983 448.305 175.668C449.351 174.352 449.891 172.851 449.925 171.164C449.891 169.578 449.368 168.195 448.356 167.014C447.378 165.799 445.758 164.72 443.498 163.775C441.237 162.797 438.184 161.886 434.338 161.042L424.014 158.816C414.838 156.825 407.601 153.502 402.304 148.846C397.041 144.157 394.427 137.764 394.46 129.667C394.427 123.088 396.181 117.336 399.723 112.41C403.3 107.45 408.242 103.588 414.551 100.821C420.894 98.0546 428.164 96.6714 436.362 96.6714C444.729 96.6714 451.966 98.0715 458.072 100.872C464.179 103.672 468.885 107.619 472.192 112.714C475.532 117.774 477.218 123.695 477.252 130.476H450.33Z" fill="#EE80E9"/>
<path d="M308.661 201.73V98.0883H383.356V120.76H336.798V138.573H379.51V161.245H336.798V179.058H383.154V201.73H308.661Z" fill="#EE80E9"/>
<path d="M272.469 130.476C272.199 127.103 270.934 124.471 268.673 122.582C266.447 120.692 263.056 119.748 258.501 119.748C255.6 119.748 253.222 120.102 251.366 120.811C249.544 121.485 248.195 122.413 247.317 123.594C246.44 124.775 245.985 126.124 245.951 127.642C245.884 128.891 246.103 130.021 246.609 131.033C247.149 132.011 247.992 132.905 249.139 133.715C250.286 134.491 251.754 135.2 253.542 135.841C255.33 136.482 257.456 137.055 259.918 137.561L268.42 139.383C274.156 140.598 279.064 142.2 283.147 144.191C287.229 146.181 290.569 148.526 293.167 151.225C295.765 153.89 297.671 156.893 298.885 160.233C300.133 163.573 300.774 167.216 300.808 171.164C300.774 177.979 299.071 183.748 295.697 188.471C292.323 193.194 287.499 196.787 281.224 199.25C274.982 201.713 267.476 202.944 258.704 202.944C249.696 202.944 241.835 201.612 235.121 198.946C228.441 196.281 223.246 192.182 219.535 186.649C215.857 181.082 214.002 173.964 213.968 165.293H240.688C240.857 168.465 241.65 171.13 243.067 173.289C244.484 175.448 246.474 177.085 249.038 178.198C251.636 179.311 254.723 179.868 258.299 179.868C261.302 179.868 263.815 179.497 265.839 178.755C267.864 178.012 269.399 176.983 270.445 175.668C271.49 174.352 272.03 172.851 272.064 171.164C272.03 169.578 271.507 168.195 270.495 167.014C269.517 165.799 267.897 164.72 265.637 163.775C263.377 162.797 260.323 161.886 256.477 161.042L246.154 158.816C236.977 156.825 229.74 153.502 224.443 148.846C219.18 144.157 216.566 137.764 216.6 129.667C216.566 123.088 218.32 117.336 221.863 112.41C225.439 107.45 230.381 103.588 236.69 100.821C243.033 98.0546 250.303 96.6714 258.501 96.6714C266.868 96.6714 274.105 98.0715 280.212 100.872C286.318 103.672 291.024 107.619 294.331 112.714C297.671 117.774 299.358 123.695 299.391 130.476H272.469Z" fill="#EE80E9"/>
<path d="M136.987 201.73H106.623L140.833 98.0883H179.294L213.504 201.73H183.14L160.468 126.63H159.659L136.987 201.73ZM131.319 160.84H188.403V181.892H131.319V160.84Z" fill="#EE80E9"/>
<path d="M103.35 136.954H74.8083C74.6058 134.592 74.066 132.45 73.1889 130.527C72.3454 128.604 71.1646 126.951 69.6465 125.567C68.162 124.151 66.357 123.071 64.2316 122.329C62.1061 121.553 59.6939 121.165 56.9949 121.165C52.2716 121.165 48.2738 122.312 45.0012 124.606C41.7624 126.9 39.2996 130.19 37.6127 134.474C35.9596 138.759 35.133 143.904 35.133 149.909C35.133 156.252 35.9765 161.565 37.6633 165.85C39.3839 170.101 41.8636 173.306 45.1024 175.465C48.3412 177.591 52.2379 178.653 56.7925 178.653C59.3902 178.653 61.7182 178.333 63.7761 177.692C65.8341 177.017 67.6222 176.056 69.1404 174.807C70.6586 173.559 71.89 172.058 72.8346 170.303C73.813 168.515 74.4709 166.508 74.8083 164.281L103.35 164.484C103.013 168.87 101.781 173.34 99.6559 177.894C97.5304 182.415 94.511 186.599 90.5974 190.445C86.7176 194.257 81.91 197.327 76.1746 199.655C70.4393 201.983 63.7761 203.147 56.1852 203.147C46.6712 203.147 38.1356 201.106 30.5785 197.023C23.055 192.941 17.1003 186.936 12.7145 179.008C8.36235 171.079 6.18628 161.38 6.18628 149.909C6.18628 138.371 8.41295 128.654 12.8663 120.76C17.3196 112.832 23.3249 106.843 30.8821 102.795C38.4393 98.7125 46.8736 96.6714 56.1852 96.6714C62.7303 96.6714 68.7524 97.5654 74.2516 99.3535C79.7508 101.142 84.5753 103.756 88.725 107.197C92.8747 110.605 96.2147 114.805 98.745 119.798C101.275 124.792 102.81 130.51 103.35 136.954Z" fill="#EE80E9"/>
<path d="M455.83 69.8182H428.966V0H455.557C462.739 0 468.944 1.39773 474.171 4.19318C479.421 6.96591 483.466 10.9659 486.307 16.1932C489.171 21.3977 490.603 27.6364 490.603 34.9091C490.603 42.1818 489.182 48.4318 486.341 53.6591C483.5 58.8636 479.478 62.8636 474.273 65.6591C469.069 68.4318 462.921 69.8182 455.83 69.8182ZM447.921 53.7273H455.148C458.603 53.7273 461.546 53.1705 463.978 52.0568C466.432 50.9432 468.296 49.0227 469.569 46.2955C470.864 43.5682 471.512 39.7727 471.512 34.9091C471.512 30.0455 470.853 26.25 469.534 23.5227C468.239 20.7955 466.33 18.875 463.807 17.7614C461.307 16.6477 458.239 16.0909 454.603 16.0909H447.921V53.7273Z" fill="#EE80E9"/>
<path d="M371.167 69.8182V0H421.486V15.2727H390.122V27.2727H418.895V42.5455H390.122V54.5455H421.349V69.8182H371.167Z" fill="#EE80E9"/>
<path d="M308.963 69.8182V0H339.099C344.281 0 348.815 0.94318 352.701 2.82954C356.588 4.71591 359.61 7.43182 361.769 10.9773C363.929 14.5227 365.008 18.7727 365.008 23.7273C365.008 28.7273 363.894 32.9432 361.667 36.375C359.463 39.8068 356.36 42.3977 352.36 44.1477C348.383 45.8977 343.735 46.7727 338.417 46.7727H320.417V32.0455H334.599C336.826 32.0455 338.724 31.7727 340.292 31.2273C341.883 30.6591 343.099 29.7614 343.94 28.5341C344.804 27.3068 345.235 25.7045 345.235 23.7273C345.235 21.7273 344.804 20.1023 343.94 18.8523C343.099 17.5795 341.883 16.6477 340.292 16.0568C338.724 15.4432 336.826 15.1364 334.599 15.1364H327.917V69.8182H308.963ZM349.872 37.7727L367.326 69.8182H346.735L329.69 37.7727H349.872Z" fill="#EE80E9"/>
<path d="M282.919 0H301.874V44.7273C301.874 50.0455 300.601 54.6477 298.056 58.5341C295.533 62.3977 292.01 65.3864 287.488 67.5C282.965 69.5909 277.715 70.6364 271.738 70.6364C265.715 70.6364 260.442 69.5909 255.919 67.5C251.397 65.3864 247.874 62.3977 245.351 58.5341C242.851 54.6477 241.601 50.0455 241.601 44.7273V0H260.556V43.0909C260.556 45.25 261.033 47.1818 261.988 48.8864C262.942 50.5682 264.26 51.8864 265.942 52.8409C267.647 53.7955 269.579 54.2727 271.738 54.2727C273.919 54.2727 275.851 53.7955 277.533 52.8409C279.215 51.8864 280.533 50.5682 281.488 48.8864C282.442 47.1818 282.919 45.25 282.919 43.0909V0Z" fill="#EE80E9"/>
<path d="M175.706 15.2727V0H236.388V15.2727H215.388V69.8182H196.706V15.2727H175.706Z" fill="#EE80E9"/>
<path d="M130.078 69.8182H109.623L132.669 0H158.578L181.623 69.8182H161.169L145.896 19.2273H145.35L130.078 69.8182ZM126.259 42.2727H164.714V56.4545H126.259V42.2727Z" fill="#EE80E9"/>
<path d="M54.1426 69.8182V0H104.461V15.2727H73.0971V27.2727H101.87V42.5455H73.0971V54.5455H104.324V69.8182H54.1426Z" fill="#EE80E9"/>
<path d="M0 69.8182V0H49.0909V15.2727H18.9545V27.2727H46.0909V42.5455H18.9545V69.8182H0Z" fill="#EE80E9"/>
</svg>
