<svg width="232" height="43" viewBox="0 0 232 43" fill="none" xmlns="http://www.w3.org/2000/svg">
<path d="M201.156 42.257V0.569946H231.2V9.68898H212.474V16.8539H229.653V25.973H212.474V33.1379H231.119V42.257H201.156Z" fill="white"/>
<path d="M148.901 0.569946H162.987L172.676 24.1817H173.165L182.853 0.569946H196.939V42.257H185.866V18.1567H185.54L176.258 41.9313H169.582L160.3 17.9938H159.974V42.257H148.901V0.569946Z" fill="white"/>
<path d="M133.351 0.569946H144.669V27.2757C144.669 30.4511 143.909 33.199 142.389 35.5195C140.883 37.8264 138.779 39.6108 136.079 40.8728C133.379 42.1213 130.244 42.7455 126.675 42.7455C123.079 42.7455 119.931 42.1213 117.23 40.8728C114.53 39.6108 112.426 37.8264 110.92 35.5195C109.428 33.199 108.681 30.4511 108.681 27.2757V0.569946H119.999V26.2986C119.999 27.5878 120.283 28.7412 120.853 29.759C121.423 30.7632 122.21 31.5502 123.215 32.1202C124.232 32.6901 125.386 32.9751 126.675 32.9751C127.978 32.9751 129.131 32.6901 130.135 32.1202C131.139 31.5502 131.927 30.7632 132.496 29.759C133.066 28.7412 133.351 27.5878 133.351 26.2986V0.569946Z" fill="white"/>
<path d="M94.1239 13.5971C94.0153 12.2401 93.5064 11.1817 92.5972 10.4218C91.7016 9.66183 90.3378 9.28187 88.5059 9.28187C87.3389 9.28187 86.3822 9.42436 85.6358 9.70932C84.9031 9.98073 84.3603 10.3539 84.0074 10.8288C83.6546 11.3038 83.4714 11.8466 83.4578 12.4572C83.4307 12.9593 83.5189 13.4139 83.7225 13.821C83.9396 14.2146 84.2788 14.5742 84.7402 14.8998C85.2016 15.212 85.7919 15.4969 86.5111 15.7548C87.2303 16.0126 88.0852 16.2433 89.0758 16.4468L92.4955 17.1796C94.8024 17.6681 96.7768 18.3127 98.4188 19.1133C100.061 19.914 101.404 20.8571 102.449 21.9427C103.494 23.0147 104.261 24.2224 104.749 25.5659C105.251 26.9093 105.509 28.3748 105.523 29.9625C105.509 32.7037 104.824 35.0241 103.467 36.9239C102.11 38.8237 100.169 40.2689 97.6453 41.2596C95.1348 42.2502 92.1155 42.7455 88.5873 42.7455C84.9641 42.7455 81.8023 42.2094 79.1019 41.1374C76.415 40.0654 74.3253 38.4166 72.8326 36.1912C71.3534 33.9521 70.6071 31.0888 70.5935 27.6014H81.3409C81.4088 28.8769 81.7277 29.949 82.2976 30.8174C82.8676 31.6859 83.6682 32.3441 84.6995 32.7919C85.7444 33.2397 86.9861 33.4636 88.4245 33.4636C89.6322 33.4636 90.6432 33.3143 91.4574 33.0158C92.2716 32.7172 92.889 32.3034 93.3097 31.7741C93.7303 31.2449 93.9475 30.641 93.961 29.9625C93.9475 29.3247 93.7371 28.7684 93.33 28.2934C92.9365 27.8049 92.2851 27.3707 91.3759 26.9907C90.4668 26.5972 89.2387 26.2308 87.6917 25.8915L83.5393 24.9959C79.8482 24.1953 76.9375 22.8586 74.807 20.986C72.6901 19.0998 71.6384 16.5282 71.652 13.2714C71.6384 10.6253 72.344 8.31162 73.7689 6.3304C75.2073 4.33561 77.1953 2.78185 79.7329 1.66911C82.284 0.556368 85.2084 0 88.5059 0C91.8713 0 94.782 0.563154 97.2382 1.68946C99.6944 2.81577 101.587 4.40346 102.917 6.45253C104.261 8.48803 104.939 10.8696 104.953 13.5971H94.1239Z" fill="white"/>
<path d="M37.1414 42.257V0.569946H67.1853V9.68898H48.4587V16.8539H65.6383V25.973H48.4587V33.1379H67.1039V42.257H37.1414Z" fill="white"/>
<path d="M0 42.257V0.569946H17.9938C21.0878 0.569946 23.795 1.1331 26.1154 2.25941C28.4359 3.38572 30.2407 5.00733 31.5299 7.12425C32.819 9.24117 33.4636 11.7788 33.4636 14.737C33.4636 17.7224 32.7987 20.2396 31.4688 22.2887C30.1525 24.3378 28.3002 25.8848 25.9119 26.9297C23.5371 27.9745 20.7621 28.497 17.5867 28.497H6.83927V19.7036H15.307C16.6368 19.7036 17.7699 19.5408 18.7062 19.2151C19.6561 18.8759 20.3821 18.3398 20.8842 17.6071C21.3999 16.8743 21.6577 15.9176 21.6577 14.737C21.6577 13.5429 21.3999 12.5726 20.8842 11.8263C20.3821 11.0663 19.6561 10.51 18.7062 10.1571C17.7699 9.79075 16.6368 9.60756 15.307 9.60756H11.3174V42.257H0ZM24.426 23.1233L34.8477 42.257H22.5533L12.3758 23.1233H24.426Z" fill="white"/>
</svg>
