<svg width="259" height="117" viewBox="0 0 259 117" fill="none" xmlns="http://www.w3.org/2000/svg">
<path d="M248.506 92C248.415 90.8637 247.989 89.9773 247.227 89.3409C246.477 88.7046 245.335 88.3864 243.801 88.3864C242.824 88.3864 242.023 88.5057 241.398 88.7443C240.784 88.9716 240.33 89.2841 240.034 89.6818C239.739 90.0796 239.585 90.5341 239.574 91.0455C239.551 91.4659 239.625 91.8466 239.796 92.1875C239.977 92.5171 240.262 92.8182 240.648 93.0909C241.034 93.3523 241.529 93.5909 242.131 93.8068C242.733 94.0227 243.449 94.2159 244.279 94.3864L247.142 95C249.074 95.4091 250.727 95.9489 252.102 96.6193C253.477 97.2898 254.602 98.0796 255.477 98.9887C256.352 99.8864 256.994 100.898 257.404 102.023C257.824 103.148 258.04 104.375 258.051 105.705C258.04 108 257.466 109.943 256.33 111.534C255.193 113.125 253.568 114.335 251.455 115.165C249.352 115.994 246.824 116.409 243.869 116.409C240.835 116.409 238.188 115.96 235.926 115.063C233.676 114.165 231.926 112.784 230.676 110.92C229.438 109.045 228.813 106.648 228.801 103.727H237.801C237.858 104.795 238.125 105.693 238.602 106.42C239.08 107.148 239.75 107.699 240.614 108.074C241.489 108.449 242.529 108.636 243.733 108.636C244.744 108.636 245.591 108.511 246.273 108.261C246.955 108.011 247.472 107.665 247.824 107.222C248.176 106.778 248.358 106.273 248.369 105.705C248.358 105.17 248.182 104.705 247.841 104.307C247.512 103.898 246.966 103.534 246.205 103.216C245.443 102.886 244.415 102.58 243.119 102.295L239.642 101.545C236.551 100.875 234.114 99.7557 232.33 98.1875C230.557 96.608 229.676 94.4546 229.688 91.7273C229.676 89.5114 230.267 87.5739 231.46 85.9148C232.665 84.2443 234.33 82.9432 236.455 82.0114C238.591 81.0796 241.04 80.6136 243.801 80.6136C246.619 80.6136 249.057 81.0852 251.114 82.0284C253.171 82.9716 254.756 84.3011 255.869 86.0171C256.994 87.7216 257.563 89.7159 257.574 92H248.506Z" fill="white"/>
<path d="M195.78 88.7273V81.0909H226.121V88.7273H215.621V116H206.28V88.7273H195.78Z" fill="white"/>
<path d="M192.435 94.1818H182.821C182.753 93.3864 182.571 92.6648 182.276 92.0171C181.992 91.3693 181.594 90.8125 181.083 90.3466C180.583 89.8693 179.975 89.5057 179.259 89.2557C178.543 88.9943 177.73 88.8636 176.821 88.8636C175.23 88.8636 173.884 89.25 172.781 90.0227C171.69 90.7955 170.861 91.9034 170.293 93.3466C169.736 94.7898 169.458 96.5227 169.458 98.5455C169.458 100.682 169.742 102.472 170.31 103.915C170.889 105.347 171.725 106.426 172.815 107.153C173.906 107.869 175.219 108.227 176.753 108.227C177.628 108.227 178.412 108.119 179.105 107.903C179.798 107.676 180.401 107.352 180.912 106.932C181.423 106.511 181.838 106.006 182.156 105.415C182.486 104.813 182.708 104.136 182.821 103.386L192.435 103.455C192.321 104.932 191.906 106.438 191.19 107.972C190.475 109.494 189.458 110.903 188.139 112.199C186.833 113.483 185.213 114.517 183.281 115.301C181.35 116.085 179.105 116.477 176.548 116.477C173.344 116.477 170.469 115.79 167.923 114.415C165.389 113.04 163.384 111.017 161.906 108.347C160.44 105.676 159.708 102.409 159.708 98.5455C159.708 94.6591 160.458 91.3864 161.958 88.7273C163.458 86.0568 165.48 84.0398 168.026 82.6761C170.571 81.3011 173.412 80.6136 176.548 80.6136C178.753 80.6136 180.781 80.9148 182.634 81.5171C184.486 82.1193 186.111 83 187.509 84.1591C188.906 85.3068 190.031 86.7216 190.884 88.4034C191.736 90.0852 192.253 92.0114 192.435 94.1818Z" fill="white"/>
<path d="M129.984 116V81.0909H155.143V88.7273H139.462V94.7273H153.848V102.364H139.462V108.364H155.075V116H129.984Z" fill="white"/>
<path d="M116.152 81.0909H125.493V105.023C125.482 107.295 124.908 109.295 123.771 111.023C122.646 112.739 121.09 114.08 119.101 115.045C117.124 116 114.845 116.477 112.266 116.477C110.027 116.477 107.982 116.091 106.129 115.318C104.277 114.534 102.8 113.307 101.698 111.636C100.595 109.955 100.05 107.773 100.061 105.091H109.538C109.573 105.966 109.72 106.705 109.982 107.307C110.254 107.909 110.629 108.364 111.107 108.67C111.595 108.966 112.186 109.114 112.879 109.114C113.584 109.114 114.175 108.96 114.652 108.653C115.141 108.347 115.51 107.892 115.76 107.29C116.01 106.676 116.141 105.92 116.152 105.023V81.0909Z" fill="white"/>
<path d="M97.3808 98.5455C97.3808 102.432 96.6251 105.71 95.1138 108.381C93.6024 111.04 91.5626 113.057 88.9944 114.432C86.4263 115.795 83.5626 116.477 80.4035 116.477C77.2217 116.477 74.3467 115.79 71.7785 114.415C69.2217 113.028 67.1876 111.006 65.6763 108.347C64.1763 105.676 63.4263 102.409 63.4263 98.5455C63.4263 94.6591 64.1763 91.3864 65.6763 88.7273C67.1876 86.0568 69.2217 84.0398 71.7785 82.6761C74.3467 81.3011 77.2217 80.6136 80.4035 80.6136C83.5626 80.6136 86.4263 81.3011 88.9944 82.6761C91.5626 84.0398 93.6024 86.0568 95.1138 88.7273C96.6251 91.3864 97.3808 94.6591 97.3808 98.5455ZM87.6308 98.5455C87.6308 96.4546 87.3524 94.6932 86.7956 93.2614C86.2501 91.8182 85.4376 90.7273 84.3581 89.9886C83.2899 89.2386 81.9717 88.8636 80.4035 88.8636C78.8354 88.8636 77.5115 89.2386 76.4319 89.9886C75.3638 90.7273 74.5513 91.8182 73.9944 93.2614C73.449 94.6932 73.1763 96.4546 73.1763 98.5455C73.1763 100.636 73.449 102.403 73.9944 103.847C74.5513 105.278 75.3638 106.369 76.4319 107.119C77.5115 107.858 78.8354 108.227 80.4035 108.227C81.9717 108.227 83.2899 107.858 84.3581 107.119C85.4376 106.369 86.2501 105.278 86.7956 103.847C87.3524 102.403 87.6308 100.636 87.6308 98.5455Z" fill="white"/>
<path d="M31.5 116V81.0909H46.5682C49.1591 81.0909 51.4261 81.5625 53.3693 82.5057C55.3125 83.4489 56.8239 84.8068 57.9034 86.5795C58.983 88.3523 59.5227 90.4773 59.5227 92.9545C59.5227 95.4545 58.9659 97.5625 57.8523 99.2784C56.75 100.994 55.1989 102.29 53.1989 103.165C51.2102 104.04 48.8864 104.477 46.2273 104.477H37.2273V97.1136H44.3182C45.4318 97.1136 46.3807 96.9773 47.1648 96.7045C47.9602 96.4205 48.5682 95.9716 48.9886 95.358C49.4205 94.7443 49.6364 93.9432 49.6364 92.9545C49.6364 91.9545 49.4205 91.142 48.9886 90.517C48.5682 89.8807 47.9602 89.4148 47.1648 89.1193C46.3807 88.8125 45.4318 88.6591 44.3182 88.6591H40.9773V116H31.5ZM51.9545 99.9773L60.6818 116H50.3864L41.8636 99.9773H51.9545Z" fill="white"/>
<path d="M0 116V81.0909H15.0682C17.6591 81.0909 19.9261 81.6023 21.8693 82.625C23.8125 83.6477 25.3239 85.0852 26.4034 86.9375C27.483 88.7898 28.0227 90.9545 28.0227 93.4318C28.0227 95.9318 27.4659 98.0966 26.3523 99.9261C25.25 101.756 23.6989 103.165 21.6989 104.153C19.7102 105.142 17.3864 105.636 14.7273 105.636H5.72727V98.2727H12.8182C13.9318 98.2727 14.8807 98.0795 15.6648 97.6932C16.4602 97.2955 17.0682 96.733 17.4886 96.0057C17.9205 95.2784 18.1364 94.4205 18.1364 93.4318C18.1364 92.4318 17.9205 91.5795 17.4886 90.875C17.0682 90.1591 16.4602 89.6136 15.6648 89.2386C14.8807 88.8523 13.9318 88.6591 12.8182 88.6591H9.47727V116H0Z" fill="white"/>
<path d="M211.44 64.8927V0.875244H257.578V14.8791H228.82V25.8821H255.202V39.8859H228.82V50.8889H257.453V64.8927H211.44Z" fill="white"/>
<path d="M152.643 64.8927V0.875244H180.275C185.027 0.875244 189.184 1.74006 192.748 3.4697C196.311 5.19934 199.083 7.6896 201.062 10.9405C203.042 14.1914 204.032 18.0883 204.032 22.6312C204.032 27.2158 203.011 31.0814 200.969 34.2281C198.947 37.3748 196.103 39.7504 192.435 41.355C188.788 42.9596 184.527 43.7619 179.65 43.7619H163.146V30.2583H176.149C178.191 30.2583 179.932 30.0082 181.369 29.5081C182.828 28.9871 183.943 28.1639 184.714 27.0386C185.506 25.9133 185.902 24.4442 185.902 22.6312C185.902 20.7973 185.506 19.3074 184.714 18.1612C183.943 16.9942 182.828 16.1398 181.369 15.598C179.932 15.0354 178.191 14.754 176.149 14.754H170.023V64.8927H152.643ZM190.153 35.5097L206.157 64.8927H187.277L171.648 35.5097H190.153Z" fill="white"/>
<path d="M144.602 32.884C144.602 40.0109 143.216 46.023 140.445 50.9201C137.673 55.7965 133.932 59.4954 129.223 62.0169C124.513 64.5176 119.262 65.7679 113.468 65.7679C107.634 65.7679 102.361 64.5072 97.6516 61.9857C92.9629 59.4433 89.2327 55.734 86.4611 50.8576C83.7103 45.9605 82.335 39.9692 82.335 32.884C82.335 25.757 83.7103 19.7554 86.4611 14.8791C89.2327 9.98189 92.9629 6.28296 97.6516 3.78228C102.361 1.26076 107.634 0 113.468 0C119.262 0 124.513 1.26076 129.223 3.78228C133.932 6.28296 137.673 9.98189 140.445 14.8791C143.216 19.7554 144.602 25.757 144.602 32.884ZM126.722 32.884C126.722 29.0496 126.212 25.8195 125.19 23.1938C124.19 20.5473 122.7 18.5467 120.72 17.1922C118.762 15.8168 116.344 15.1291 113.468 15.1291C110.593 15.1291 108.165 15.8168 106.185 17.1922C104.226 18.5467 102.736 20.5473 101.715 23.1938C100.715 25.8195 100.215 29.0496 100.215 32.884C100.215 36.7184 100.715 39.9588 101.715 42.6054C102.736 45.2311 104.226 47.2316 106.185 48.607C108.165 49.9615 110.593 50.6388 113.468 50.6388C116.344 50.6388 118.762 49.9615 120.72 48.607C122.7 47.2316 124.19 45.2311 125.19 42.6054C126.212 39.9588 126.722 36.7184 126.722 32.884Z" fill="white"/>
<path d="M0.578125 0.875244H22.209L37.0881 37.1351H37.8383L52.7173 0.875244H74.3482V64.8927H57.3436V27.8826H56.8435L42.5896 64.3926H32.3368L18.0829 27.6325H17.5828V64.8927H0.578125V0.875244Z" fill="white"/>
</svg>
