<svg width="235" height="118" viewBox="0 0 235 118" fill="none" xmlns="http://www.w3.org/2000/svg">
<path d="M223.143 90.2885C223.043 89.0328 222.572 88.0533 221.731 87.3501C220.902 86.6469 219.64 86.2953 217.945 86.2953C216.865 86.2953 215.979 86.4271 215.289 86.6908C214.611 86.942 214.108 87.2873 213.782 87.7268C213.455 88.1663 213.286 88.6686 213.273 89.2337C213.248 89.6983 213.33 90.119 213.518 90.4957C213.719 90.8599 214.033 91.1927 214.46 91.4941C214.887 91.7829 215.433 92.0466 216.099 92.2852C216.764 92.5238 217.555 92.7372 218.472 92.9256L221.637 93.6037C223.771 94.0558 225.598 94.6522 227.118 95.3931C228.637 96.134 229.881 97.0068 230.847 98.0114C231.814 99.0034 232.524 100.121 232.976 101.364C233.441 102.607 233.679 103.964 233.692 105.433C233.679 107.969 233.045 110.117 231.789 111.875C230.534 113.633 228.738 114.97 226.402 115.887C224.079 116.804 221.285 117.262 218.02 117.262C214.667 117.262 211.741 116.766 209.242 115.774C206.756 114.782 204.822 113.256 203.441 111.197C202.072 109.125 201.381 106.475 201.369 103.248H211.314C211.377 104.428 211.672 105.42 212.2 106.224C212.727 107.028 213.468 107.637 214.422 108.051C215.389 108.465 216.538 108.673 217.869 108.673C218.987 108.673 219.922 108.534 220.676 108.258C221.429 107.982 222.001 107.599 222.39 107.109C222.779 106.619 222.98 106.061 222.993 105.433C222.98 104.843 222.786 104.328 222.409 103.888C222.045 103.436 221.442 103.034 220.601 102.683C219.759 102.319 218.623 101.979 217.191 101.666L213.349 100.837C209.933 100.096 207.239 98.859 205.268 97.1261C203.309 95.3806 202.336 93.0009 202.348 89.9872C202.336 87.5385 202.989 85.3974 204.307 83.564C205.638 81.7181 207.478 80.2803 209.826 79.2506C212.187 78.2208 214.893 77.706 217.945 77.706C221.059 77.706 223.753 78.2271 226.025 79.2694C228.298 80.3117 230.05 81.7809 231.281 83.6771C232.524 85.5607 233.152 87.7645 233.164 90.2885H223.143Z" fill="white"/>
<path d="M173.106 116.81V78.2334H183.579V108.371H199.176V116.81H173.106Z" fill="white"/>
<path d="M141.972 116.81H130.67L143.403 78.2334H157.719L170.452 116.81H159.15L150.712 88.857H150.41L141.972 116.81ZM139.862 101.59H161.109V109.426H139.862V101.59Z" fill="white"/>
<path d="M117.561 78.2334H128.034V102.946C128.034 105.885 127.331 108.428 125.925 110.575C124.531 112.71 122.584 114.361 120.085 115.529C117.586 116.684 114.686 117.262 111.383 117.262C108.055 117.262 105.142 116.684 102.643 115.529C100.144 114.361 98.1978 112.71 96.8039 110.575C95.4226 108.428 94.7319 105.885 94.7319 102.946V78.2334H105.205V102.042C105.205 103.235 105.469 104.303 105.996 105.244C106.523 106.174 107.252 106.902 108.181 107.429C109.123 107.957 110.19 108.221 111.383 108.221C112.589 108.221 113.656 107.957 114.585 107.429C115.514 106.902 116.243 106.174 116.77 105.244C117.298 104.303 117.561 103.235 117.561 102.042V78.2334Z" fill="white"/>
<path d="M81.2609 90.2885C81.1604 89.0328 80.6895 88.0533 79.8482 87.3501C79.0194 86.6469 77.7574 86.2953 76.0621 86.2953C74.9822 86.2953 74.0969 86.4271 73.4062 86.6908C72.7281 86.942 72.2258 87.2873 71.8993 87.7268C71.5728 88.1663 71.4033 88.6686 71.3908 89.2337C71.3656 89.6983 71.4473 90.119 71.6356 90.4957C71.8365 90.8599 72.1505 91.1927 72.5774 91.4941C73.0044 91.7829 73.5506 92.0466 74.2162 92.2852C74.8817 92.5238 75.6728 92.7372 76.5895 92.9256L79.754 93.6037C81.8888 94.0558 83.7159 94.6522 85.2353 95.3931C86.7548 96.134 87.9979 97.0068 88.9649 98.0114C89.9318 99.0034 90.6413 100.121 91.0934 101.364C91.558 102.607 91.7966 103.964 91.8091 105.433C91.7966 107.969 91.1624 110.117 89.9067 111.875C88.6509 113.633 86.8552 114.97 84.5195 115.887C82.1964 116.804 79.4024 117.262 76.1375 117.262C72.7846 117.262 69.8588 116.766 67.3598 115.774C64.8735 114.782 62.9396 113.256 61.5583 111.197C60.1895 109.125 59.4989 106.475 59.4863 103.248H69.4318C69.4946 104.428 69.7897 105.42 70.3171 106.224C70.8445 107.028 71.5854 107.637 72.5398 108.051C73.5067 108.465 74.6557 108.673 75.9868 108.673C77.1044 108.673 78.0399 108.534 78.7934 108.258C79.5468 107.982 80.1182 107.599 80.5075 107.109C80.8967 106.619 81.0976 106.061 81.1102 105.433C81.0976 104.843 80.903 104.328 80.5263 103.888C80.1621 103.436 79.5594 103.034 78.718 102.683C77.8767 102.319 76.7402 101.979 75.3087 101.666L71.4661 100.837C68.0505 100.096 65.3569 98.859 63.3854 97.1261C61.4264 95.3806 60.4532 93.0009 60.4658 89.9872C60.4532 87.5385 61.1062 85.3974 62.4248 83.564C63.7558 81.7181 65.5955 80.2803 67.9437 79.2506C70.3045 78.2208 73.0107 77.706 76.0621 77.706C79.1764 77.706 81.8699 78.2271 84.1428 79.2694C86.4157 80.3117 88.1675 81.7809 89.3981 83.6771C90.6413 85.5607 91.2692 87.7645 91.2817 90.2885H81.2609Z" fill="white"/>
<path d="M56.563 78.2334V116.81H46.0901V78.2334H56.563Z" fill="white"/>
<path d="M15.4829 78.2334L23.3941 105.433H23.6955L31.6066 78.2334H43.4357L30.7025 116.81H16.387L3.65381 78.2334H15.4829Z" fill="white"/>
<path d="M191.544 60.0375V0.809692H234.23V13.7658H207.624V23.9456H232.032V36.9016H207.624V47.0814H234.114V60.0375H191.544Z" fill="white"/>
<path d="M117.302 0.809692H137.314L151.08 34.3567H151.774L165.54 0.809692H185.553V60.0375H169.82V25.7964H169.357L156.17 59.5748H146.684L133.497 25.5651H133.034V60.0375H117.302V0.809692Z" fill="white"/>
<path d="M111.491 30.4237C111.491 37.0174 110.209 42.5796 107.645 47.1104C105.081 51.6219 101.62 55.0441 97.2626 57.3769C92.9053 59.6905 88.0468 60.8473 82.687 60.8473C77.2886 60.8473 72.4108 59.6809 68.0535 57.348C63.7156 54.9959 60.2645 51.564 57.7002 47.0525C55.1553 42.5218 53.8828 36.9788 53.8828 30.4237C53.8828 23.8299 55.1553 18.2773 57.7002 13.7658C60.2645 9.23506 63.7156 5.81288 68.0535 3.4993C72.4108 1.16643 77.2886 0 82.687 0C88.0468 0 92.9053 1.16643 97.2626 3.4993C101.62 5.81288 105.081 9.23506 107.645 13.7658C110.209 18.2773 111.491 23.8299 111.491 30.4237ZM94.949 30.4237C94.949 26.8762 94.4766 23.8878 93.5319 21.4585C92.6065 19.01 91.2279 17.1591 89.3964 15.9059C87.584 14.6334 85.3476 13.9972 82.687 13.9972C80.0263 13.9972 77.7802 14.6334 75.9486 15.9059C74.1363 17.1591 72.7578 19.01 71.8131 21.4585C70.8877 23.8878 70.425 26.8762 70.425 30.4237C70.425 33.9711 70.8877 36.9692 71.8131 39.4177C72.7578 41.847 74.1363 43.6978 75.9486 44.9703C77.7802 46.2235 80.0263 46.8501 82.687 46.8501C85.3476 46.8501 87.584 46.2235 89.3964 44.9703C91.2279 43.6978 92.6065 41.847 93.5319 39.4177C94.4766 36.9692 94.949 33.9711 94.949 30.4237Z" fill="white"/>
<path d="M33.4313 19.3184C33.2771 17.3905 32.5541 15.8866 31.2623 14.8069C29.9899 13.7273 28.0522 13.1874 25.4494 13.1874C23.7914 13.1874 22.4321 13.3899 21.3717 13.7948C20.3306 14.1804 19.5594 14.7105 19.0582 15.3853C18.5569 16.0601 18.2966 16.8313 18.2773 17.6989C18.2388 18.4123 18.3641 19.0582 18.6533 19.6366C18.9618 20.1957 19.4438 20.7066 20.0993 21.1693C20.7548 21.6127 21.5935 22.0176 22.6153 22.3839C23.6371 22.7503 24.8518 23.078 26.2592 23.3672L31.1177 24.4083C34.3953 25.1024 37.2005 26.0182 39.5334 27.1557C41.8663 28.2932 43.775 29.6332 45.2595 31.1756C46.7441 32.6987 47.8334 34.4146 48.5275 36.3233C49.2408 38.232 49.6071 40.3142 49.6264 42.57C49.6071 46.4645 48.6335 49.7614 46.7055 52.4606C44.7775 55.1597 42.0205 57.213 38.4344 58.6205C34.8677 60.0279 30.5779 60.7316 25.5651 60.7316C20.4174 60.7316 15.9252 59.9701 12.0885 58.447C8.27107 56.9238 5.30197 54.5813 3.18118 51.4194C1.07967 48.2383 0.0192799 44.1702 0 39.2153H15.2697C15.3661 41.0276 15.8191 42.5507 16.6289 43.7846C17.4387 45.0185 18.5762 45.9536 20.0414 46.5898C21.526 47.2261 23.2901 47.5442 25.3338 47.5442C27.0497 47.5442 28.486 47.3321 29.6428 46.9079C30.7996 46.4838 31.6768 45.8958 32.2745 45.1438C32.8722 44.3919 33.1807 43.534 33.2 42.57C33.1807 41.6638 32.8818 40.8733 32.3034 40.1985C31.7443 39.5045 30.8189 38.8875 29.5271 38.3477C28.2354 37.7886 26.4906 37.268 24.2927 36.786L18.393 35.5135C13.1489 34.376 9.01334 32.477 5.9864 29.8163C2.97874 27.1364 1.48455 23.4829 1.50383 18.8557C1.48455 15.0961 2.4871 11.8089 4.51149 8.99407C6.55516 6.15992 9.37966 3.95237 12.985 2.37142C16.6096 0.790475 20.7644 0 25.4494 0C30.2309 0 34.3664 0.800115 37.856 2.40035C41.3457 4.00058 44.0353 6.25632 45.9247 9.16759C47.8334 12.0596 48.7974 15.4432 48.8167 19.3184H33.4313Z" fill="white"/>
</svg>
